<?xml version="1.0" standalone="no"?>
<!DOCTYPE svg PUBLIC "-//W3C//DTD SVG 20010904//EN"
 "http://www.w3.org/TR/2001/REC-SVG-20010904/DTD/svg10.dtd">
<svg version="1.0" xmlns="http://www.w3.org/2000/svg"
 width="1024.000000pt" height="1024.000000pt" viewBox="0 0 1024.000000 1024.000000"
 preserveAspectRatio="xMidYMid meet">

<g transform="translate(0.000000,1024.000000) scale(0.100000,-0.100000)"
fill="#000000" stroke="none">
<path d="M0 5120 l0 -5120 5120 0 5120 0 0 5120 0 5120 -5120 0 -5120 0 0
-5120z m3120 1675 c650 -142 1122 -656 1210 -1320 14 -107 11 -362 -5 -455
-53 -293 -183 -569 -356 -754 l-64 -68 2 107 2 107 50 76 c96 147 162 307 208
507 20 89 28 369 13 474 -14 98 -52 249 -80 322 -89 225 -263 457 -450 599
-268 203 -540 288 -886 277 -226 -7 -349 -38 -549 -137 -161 -79 -243 -138
-371 -265 -239 -237 -384 -559 -403 -889 -23 -422 93 -748 379 -1067 l61 -68
-3 -98 -3 -98 -127 126 c-248 247 -379 499 -445 854 -25 135 -22 388 6 531 68
352 238 653 499 884 207 183 467 308 747 361 127 23 446 20 565 -6z m3542
-206 c74 -15 172 -65 227 -115 l46 -43 -74 -75 -74 -75 -36 29 c-199 157 -450
67 -477 -172 -13 -111 49 -223 149 -275 43 -21 66 -26 127 -26 86 0 132 16
198 70 l44 36 74 -74 75 -74 -48 -43 c-245 -218 -654 -148 -796 136 -116 232
-36 521 180 648 94 55 263 78 385 53z m-1532 -164 c52 -90 122 -212 156 -270
l61 -106 108 188 c60 103 129 225 154 270 l46 83 108 0 107 0 0 -475 0 -475
-110 0 -110 0 0 260 c0 143 -3 260 -7 260 -5 -1 -62 -93 -128 -205 l-120 -205
-47 0 -47 0 -123 207 -123 206 -3 -261 -2 -262 -110 0 -110 0 -2 468 c-2 257
-2 470 0 475 2 4 49 7 105 7 l102 0 95 -165z m-1500 -139 c0 -2 -16 -70 -35
-152 -20 -82 -38 -162 -42 -177 l-6 -29 -52 52 -53 52 -75 -58 c-41 -33 -171
-141 -290 -241 -118 -101 -218 -183 -222 -183 -4 0 -72 63 -153 140 l-145 139
-46 -41 c-25 -23 -77 -71 -116 -107 -38 -37 -128 -119 -200 -182 -71 -64 -153
-137 -181 -163 -29 -25 -56 -46 -61 -46 -5 0 -30 22 -56 48 l-48 48 128 114
c142 126 470 421 542 487 l46 42 147 -146 147 -146 98 84 c54 47 162 138 241
203 78 65 142 119 142 121 0 2 -20 23 -45 47 -24 24 -45 45 -45 48 0 3 12 7
28 8 15 2 88 11 162 21 136 19 190 24 190 17z m-100 -840 l0 -295 -42 24 c-49
27 -78 33 -165 34 l-63 1 0 265 0 265 135 0 135 0 0 -294z m-999 14 l39 0 0
-124 0 -124 -93 -4 c-77 -3 -100 -8 -140 -30 l-48 -27 3 152 3 152 55 6 c30 4
75 5 99 3 24 -2 61 -4 82 -4z m539 -151 l0 -99 -150 0 -150 0 0 103 0 102 150
-3 150 -3 0 -100z m2280 100 c124 -20 200 -71 247 -167 24 -49 28 -69 28 -142
0 -71 -4 -94 -26 -141 -29 -61 -81 -119 -130 -145 -54 -27 -160 -44 -289 -44
l-125 0 3 -145 3 -145 -115 0 -116 0 0 470 0 470 228 0 c125 0 256 -5 292 -11z
m968 -154 c35 -88 103 -263 152 -390 49 -126 103 -263 119 -304 17 -41 31 -75
31 -77 0 -2 -51 -4 -114 -4 l-114 0 -34 85 -33 85 -199 -2 -200 -3 -29 -82
-29 -82 -119 -3 c-66 -2 -119 -2 -119 -1 0 1 14 37 31 80 52 128 227 579 275
707 66 174 44 157 192 154 l126 -3 64 -160z m1039 141 c144 -46 229 -193 203
-351 -16 -99 -56 -158 -135 -197 -22 -11 -42 -22 -44 -24 -2 -2 33 -66 79
-141 46 -76 92 -153 102 -170 l20 -33 -125 0 -125 0 -88 155 -89 155 -72 0
-73 0 0 -155 0 -155 -117 0 -118 0 -4 436 c-1 239 0 451 4 470 l6 36 262 -4
c209 -4 272 -8 314 -22z m634 7 c0 -10 0 -96 -1 -190 -1 -95 1 -177 4 -182 6
-10 64 50 261 267 l110 121 128 0 c70 1 127 -2 127 -5 0 -4 -46 -58 -102 -120
-185 -206 -249 -279 -258 -295 -10 -18 -14 -12 240 -344 l130 -170 -122 -3
c-67 -1 -127 -1 -134 2 -11 4 -84 98 -218 278 l-50 68 -53 -52 -53 -52 0 -123
0 -123 -115 0 -115 0 0 470 0 470 110 0 c98 0 110 -2 111 -17z m-5861 -383 l0
-120 -42 0 c-24 0 -66 -11 -96 -25 -46 -21 -56 -32 -77 -78 -37 -79 -46 -145
-39 -276 l7 -116 -22 27 c-21 26 -21 34 -21 367 l0 341 145 0 145 0 0 -120z
m1277 79 c48 -18 76 -54 138 -179 l59 -120 88 0 c134 0 160 -19 123 -90 -18
-36 -52 -60 -83 -60 -22 0 -22 -3 23 -87 l47 -88 -7 -280 c-7 -288 -13 -324
-50 -339 -9 -3 -63 -6 -120 -6 -57 0 -111 3 -120 6 -26 10 -45 59 -45 114 l0
52 -102 -9 c-130 -10 -790 -11 -920 0 l-98 7 0 -50 c0 -55 -20 -104 -45 -114
-31 -11 -239 -6 -256 7 -32 25 -36 56 -43 338 l-7 287 45 73 c47 75 56 102 33
93 -29 -11 -66 15 -87 62 -30 69 -18 78 113 83 l102 3 49 109 c54 121 75 152
120 180 29 18 59 19 523 19 323 0 501 -4 520 -11z m4061 -885 c28 -9 63 -30
78 -46 l28 -28 -26 -27 -26 -26 -33 24 c-22 15 -51 24 -89 27 -52 4 -60 2 -93
-28 -106 -93 -48 -270 88 -270 65 0 115 30 129 78 7 21 5 22 -63 22 l-71 0 0
35 0 36 118 -3 117 -3 -3 -45 c-5 -68 -40 -130 -96 -167 -45 -31 -54 -33 -130
-33 -74 0 -87 3 -129 29 -25 17 -59 49 -74 72 -25 38 -28 52 -28 123 0 94 20
142 77 189 69 56 140 69 226 41z m-2473 -114 c36 -66 70 -120 73 -120 4 0 38
54 75 120 l68 120 45 0 44 0 0 -230 0 -230 -45 0 -44 0 -3 143 c-2 103 -6 136
-13 122 -5 -12 -30 -56 -55 -98 -41 -71 -48 -77 -74 -75 -24 3 -36 17 -85 97
l-56 94 -3 -142 -3 -141 -44 0 -45 0 0 230 0 230 49 0 49 0 67 -120z m822 -95
c45 -115 82 -218 82 -227 1 -15 -8 -18 -48 -18 l-48 0 -13 45 -13 46 -100 -3
-100 -3 -15 -42 c-14 -43 -14 -43 -64 -43 -36 0 -49 4 -45 13 50 129 152 390
163 415 13 32 15 33 66 30 l53 -3 82 -210z m433 70 c57 -80 105 -145 105 -145
0 0 0 64 0 142 l0 143 48 3 47 3 0 -230 0 -231 -42 0 c-39 0 -46 4 -72 43 -16
23 -64 88 -105 144 l-76 102 -3 -144 -3 -145 -44 0 -45 0 0 230 0 230 43 0 42
0 105 -145z m643 103 c8 -24 44 -117 80 -208 91 -233 87 -210 29 -210 -49 0
-49 0 -66 45 l-18 45 -98 0 -97 0 -13 -45 -13 -45 -48 0 c-27 0 -49 4 -49 10
0 8 106 287 155 408 17 42 17 42 70 42 l53 0 15 -42z m1203 27 c4 -8 3 -26 0
-40 -6 -25 -8 -25 -111 -25 l-105 0 0 -55 0 -55 101 0 100 0 -3 -37 -3 -38
-97 -3 -98 -3 0 -54 0 -54 108 -3 107 -3 3 -37 3 -38 -150 0 -151 0 0 230 0
230 145 0 c120 0 147 -3 151 -15z m474 -11 c50 -28 73 -77 65 -138 -7 -55 -27
-91 -61 -109 l-23 -12 44 -70 c58 -91 58 -105 1 -105 l-45 0 -51 85 c-48 80
-53 85 -86 85 l-34 0 0 -85 0 -85 -45 0 -45 0 0 231 0 231 123 -4 c100 -3 129
-8 157 -24z m-5208 -316 c9 -29 13 -56 10 -60 -15 -13 -152 -50 -260 -69 -198
-33 -491 -21 -677 28 -33 9 -62 18 -64 19 -2 2 8 13 23 25 14 11 35 38 46 58
21 43 11 42 174 15 117 -18 335 -18 461 2 103 16 215 30 250 33 17 1 24 -10
37 -51z"/>
<path d="M5060 5095 l0 -148 120 6 c174 9 220 37 222 140 2 105 -51 139 -224
145 l-118 4 0 -147z"/>
<path d="M6062 5001 c-35 -86 -66 -162 -69 -168 -4 -10 26 -13 132 -13 106 0
136 3 132 13 -2 6 -30 76 -61 153 -31 78 -56 146 -56 152 0 40 -23 -1 -78
-137z"/>
<path d="M7010 5105 l0 -135 118 0 c91 0 125 4 152 18 72 36 91 143 36 201
-37 39 -86 51 -205 51 l-101 0 0 -135z"/>
<path d="M2422 4993 c-8 -3 -38 -55 -68 -115 -51 -105 -73 -172 -60 -185 24
-24 167 -32 596 -32 455 -1 572 7 602 37 6 6 8 25 4 45 -7 38 -76 185 -107
228 l-20 29 -467 -1 c-257 0 -473 -3 -480 -6z"/>
<path d="M2130 4475 c-18 -22 -5 -156 16 -172 30 -22 291 -30 312 -9 9 10 -10
96 -26 116 -12 14 -53 31 -127 50 -125 34 -157 37 -175 15z"/>
<path d="M3530 4474 c-163 -43 -160 -42 -180 -87 -24 -53 -25 -84 -2 -96 9 -5
67 -7 127 -5 61 2 119 4 130 4 11 0 26 4 33 9 19 11 35 160 20 178 -13 16 -57
15 -128 -3z"/>
<path d="M2583 4348 c10 -78 12 -78 312 -78 300 0 302 0 312 78 l6 42 -318 0
-318 0 6 -42z"/>
<path d="M5643 4017 c-18 -45 -33 -85 -33 -88 0 -4 32 -7 71 -8 55 -1 70 1 67
11 -3 7 -18 48 -34 90 -16 43 -31 78 -34 78 -3 0 -20 -37 -37 -83z"/>
<path d="M6811 4078 c-5 -13 -20 -51 -34 -85 -14 -34 -22 -64 -19 -67 9 -10
132 -7 132 3 0 13 -61 171 -66 171 -3 0 -8 -10 -13 -22z"/>
<path d="M8380 4075 l0 -65 63 0 c73 0 97 17 97 67 0 46 -26 63 -98 63 l-62 0
0 -65z"/>
</g>
</svg>
